<?xml version="1.0" encoding="UTF-8" standalone="no"?><!DOCTYPE svg PUBLIC "-//W3C//DTD SVG 1.1//EN" "http://www.w3.org/Graphics/SVG/1.1/DTD/svg11.dtd"><svg width="100%" height="100%" viewBox="0 0 3799 3807" version="1.1" xmlns="http://www.w3.org/2000/svg" xmlns:xlink="http://www.w3.org/1999/xlink" xml:space="preserve" xmlns:serif="http://www.serif.com/" style="fill-rule:evenodd;clip-rule:evenodd;stroke-linejoin:round;stroke-miterlimit:2;"><rect id="dbke-v4-full" x="0" y="0" width="3798.21" height="3806.99" style="fill:none;"/><g><path d="M1916.13,789.497l0,1109.78l-1105.04,0c-0,-612.913 320.285,-1135.67 1105.04,-1109.78Z" style="fill:none;"/><clipPath id="_clip1"><path d="M1916.13,789.497l0,1109.78l-1105.04,0c-0,-612.913 320.285,-1135.67 1105.04,-1109.78Z"/></clipPath><g clip-path="url(#_clip1)"><path d="M1977.95,1405.63c0.896,67.157 -6.898,127.474 -23.382,180.952c-16.485,53.477 -39.857,100.93 -70.118,142.358c-30.26,41.429 -66.454,76.82 -108.58,106.174c-42.126,29.353 -88.381,53.605 -138.764,72.755c-50.384,19.15 -104.058,33.426 -161.021,42.829c-56.963,9.402 -115.536,14.509 -175.719,15.319c-22.449,0.302 -44.429,-0.001 -65.939,-0.911c-21.51,-0.91 -43.505,-2.413 -65.986,-4.51l7.556,-937.108c52.317,-17.497 106.252,-30.097 161.804,-37.802c55.553,-7.704 110.794,-11.926 165.723,-12.666c68.303,-0.919 131.241,7.829 188.814,26.245c57.573,18.416 107.386,45.933 149.437,82.549c42.051,36.617 75.023,81.992 98.915,136.125c23.892,54.133 36.312,116.697 37.26,187.691Zm-483.508,282.862c28.601,-4.703 54.635,-13.81 78.102,-27.32c23.467,-13.509 43.669,-30.094 60.605,-49.753c16.936,-19.659 29.896,-41.903 38.88,-66.733c8.984,-24.829 13.291,-51.155 12.919,-78.977c-0.364,-27.343 -3.571,-52.848 -9.62,-76.515c-6.049,-23.668 -15.638,-44.169 -28.768,-61.504c-13.13,-17.335 -30.272,-31.018 -51.426,-41.049c-21.154,-10.03 -47.022,-15.319 -77.604,-15.867l-23.088,417.718Z" style="fill:#6ab07d;fill-rule:nonzero;"/></g><path d="M1969.18,789.497l-0,1109.78l1105.04,0c0,-612.913 -224.195,-1159.34 -1105.04,-1109.78Z" style="fill:none;"/><clipPath id="_clip2"><path d="M1969.18,789.497l-0,1109.78l1105.04,0c0,-612.913 -224.195,-1159.34 -1105.04,-1109.78Z"/></clipPath><g clip-path="url(#_clip2)"><path d="M2706.66,1787.55c-4.916,36.022 -16.384,66.057 -34.405,90.106c-18.02,24.048 -40.369,43.522 -67.046,58.42c-26.678,14.898 -56.572,25.927 -89.683,33.087c-33.112,7.159 -67.187,11.644 -102.226,13.453c-35.039,1.809 -69.9,1.433 -104.584,-1.131c-34.683,-2.563 -66.966,-5.901 -96.848,-10.014c-29.407,-4.048 -59.749,-9.219 -91.024,-15.513c-31.275,-6.295 -62.239,-13.984 -92.892,-23.066c-30.653,-9.083 -60.61,-19.728 -89.87,-31.936c-29.261,-12.207 -56.58,-26.247 -81.957,-42.12l113.005,-838.681c27.924,-6.326 57.374,-11.447 88.352,-15.363c30.977,-3.916 62.37,-6.448 94.177,-7.597c31.808,-1.149 63.32,-1.012 94.535,0.411c31.215,1.422 61.29,4.125 90.223,8.107c33.676,4.636 67.441,11.273 101.296,19.912c33.854,8.639 66.049,19.703 96.584,33.191c30.536,13.488 58.566,29.395 84.092,47.72c25.526,18.326 47.154,39.542 64.885,63.648c17.73,24.105 30.481,51.063 38.252,80.872c7.771,29.81 9.139,63.159 4.104,100.049c-3.316,24.304 -10.22,46.567 -20.711,66.788c-10.492,20.222 -24.007,37.816 -40.546,52.783c-16.539,14.968 -35.821,27.015 -57.845,36.143c-22.024,9.127 -46.228,14.75 -72.611,16.866c29.824,11.622 56.446,26.34 79.867,44.155c23.421,17.814 42.633,38.145 57.636,60.991c15.004,22.846 25.62,47.741 31.848,74.685c6.229,26.945 7.36,54.956 3.392,84.034Zm-310.787,-420.817c1.718,-12.586 0.338,-23.719 -4.14,-33.399c-4.477,-9.681 -10.481,-17.913 -18.012,-24.698c-7.53,-6.784 -15.98,-12.147 -25.348,-16.09c-9.368,-3.942 -17.846,-6.436 -25.435,-7.48c-9.487,-1.306 -18.913,-1.277 -28.281,0.087c-9.367,1.363 -42.332,6.994 -51.344,9.291l-0.215,140.133c10.909,1.502 24.545,2.494 40.909,2.978c16.363,0.484 32.415,-1.176 48.156,-4.978c15.74,-3.803 29.612,-10.736 41.617,-20.801c12.004,-10.064 19.369,-25.079 22.093,-45.043Zm-129.991,198.32c-13.755,-1.894 -27.213,-2.42 -40.375,-1.578l-23.102,148.035c6.937,2.282 13.771,4.438 20.5,6.47c6.729,2.031 13.414,3.504 20.055,4.418c9.96,1.371 21.003,1.896 33.127,1.575c12.124,-0.32 23.804,-2.692 35.038,-7.115c11.235,-4.423 20.972,-11.152 29.212,-20.187c8.239,-9.035 13.485,-21.799 15.735,-38.291c2.251,-16.492 0.648,-30.419 -4.808,-41.782c-5.456,-11.362 -12.765,-20.659 -21.926,-27.888c-9.16,-7.23 -19.537,-12.638 -31.128,-16.223c-11.591,-3.585 -22.367,-6.063 -32.328,-7.434Z" style="fill:#f7b10f;fill-rule:nonzero;"/></g><path d="M1916.13,3058.56l0,-1109.78l-1105.04,-0.001c-54.682,893.509 494.742,1109.78 1105.04,1109.78Z" style="fill:none;"/><clipPath id="_clip3"><path d="M1916.13,3058.56l0,-1109.78l-1105.04,-0.001c-54.682,893.509 494.742,1109.78 1105.04,1109.78Z"/></clipPath><g clip-path="url(#_clip3)"><path d="M2234.05,1800.01l-562.268,529.606l632.81,323.477l-495.697,110.845l-260.637,-239.511l25.1,283.354l-307.017,50.762l-101.55,-958.213l347.509,-29.481l12.53,321.266l143.092,-362.958l566.128,-29.147Z" style="fill:#ec7761;fill-rule:nonzero;"/></g><path d="M1969.18,3058.56l-0,-1109.78l1105.04,-0.001c0,612.914 -494.742,1109.78 -1105.04,1109.78Z" style="fill:none;"/><clipPath id="_clip4"><path d="M1969.18,3058.56l-0,-1109.78l1105.04,-0.001c0,612.914 -494.742,1109.78 -1105.04,1109.78Z"/></clipPath><g clip-path="url(#_clip4)"><path d="M2693.94,2307.17c-7.983,41.71 -18.967,82.84 -32.951,123.391c-86.511,-11.232 -173.142,-19.132 -259.892,-23.7c-86.75,-4.567 -173.477,-9.254 -260.182,-14.061c6.394,37.028 21.493,68.528 45.297,94.5c23.805,25.973 54.958,42.675 93.459,50.108c20,3.861 42.564,4.488 67.691,1.882c25.127,-2.606 50.473,-7.034 76.039,-13.284c25.565,-6.251 50.291,-13.533 74.177,-21.847c23.886,-8.314 44.543,-16.009 61.971,-23.085l-98.493,319.536c-22.253,10.618 -45.718,18.765 -70.396,24.441c-24.678,5.676 -49.863,9.265 -75.557,10.768c-25.693,1.502 -51.315,1.279 -76.867,-0.671c-25.551,-1.95 -50.327,-5.242 -74.327,-9.875c-49.501,-9.556 -93.514,-24.764 -132.037,-45.624c-38.523,-20.86 -72.185,-46.125 -100.985,-75.796c-28.801,-29.671 -52.673,-62.741 -71.617,-99.209c-18.944,-36.468 -33.088,-74.992 -42.43,-115.573c-9.343,-40.58 -14.273,-82.545 -14.79,-125.896c-0.516,-43.351 3.309,-86.36 11.476,-129.029c8.534,-44.586 21.318,-88.351 38.352,-131.297c17.034,-42.945 38.123,-83.368 63.265,-121.268c25.142,-37.9 54.211,-71.934 87.206,-102.104c32.995,-30.17 69.517,-55.06 109.565,-74.672c40.047,-19.611 83.619,-32.576 130.715,-38.895c47.096,-6.32 97.394,-4.315 150.895,6.013c44.501,8.591 84.003,22.307 118.506,41.148c34.503,18.84 64.133,41.463 88.892,67.868c24.759,26.406 45.011,56.042 60.756,88.91c15.744,32.867 27.211,67.768 34.4,104.701c7.19,36.933 10.512,75.108 9.967,114.525c-0.545,39.418 -4.58,78.782 -12.105,118.095Zm-295.207,-93.61c2.87,-7.594 6.065,-29.198 5.772,-43.921c-0.293,-14.722 -2.713,-28.487 -7.261,-41.297c-4.548,-12.809 -11.611,-23.991 -21.189,-33.545c-9.578,-9.555 -22.617,-15.925 -39.117,-19.11c-20.001,-3.862 -38.613,-2.11 -55.836,5.253c-17.223,7.364 -32.826,17.774 -46.809,31.232c-13.982,13.457 -26.217,28.619 -36.704,45.486c-10.488,16.867 -22.11,37.535 -25.386,47.298c83.152,-5.927 185.494,-5.763 226.53,8.604Z" style="fill:#61b5c1;fill-rule:nonzero;"/></g></g><circle cx="746.669" cy="2668.32" r="60.658" style="fill:#6ab07d;"/><circle cx="3195.53" cy="1447.45" r="60.658" style="fill:#61b5c1;"/><circle cx="1578.17" cy="578.436" r="60.658" style="fill:#f7b10f;"/><circle cx="3074.22" cy="2640.01" r="60.658" style="fill:#ec7761;"/><g transform="matrix(1,-1.96882e-18,4.61219e-18,1,-12201.6,-7947.06)"><g transform="matrix(-0.295021,-0.955491,0.955491,-0.295021,6867.13,25771)"><text x="12946px" y="10352.2px" style="font-family:'Arial-BoldMT', 'Arial', sans-serif;font-weight:700;font-size:300px;fill:#756460;">D</text></g><g transform="matrix(-0.0791248,-0.996865,0.996865,-0.0791248,3818.58,23719.3)"><text x="12870.2px" y="10095.9px" style="font-family:'Arial-BoldMT', 'Arial', sans-serif;font-weight:700;font-size:300px;fill:#756460;">O</text></g><g transform="matrix(0.138365,-0.990381,0.990381,0.138365,1351.07,21179.6)"><text x="12852.9px" y="9813.31px" style="font-family:'Arial-BoldMT', 'Arial', sans-serif;font-weight:700;font-size:300px;fill:#756460;">N</text></g><g transform="matrix(0.347684,-0.937612,0.937612,0.347684,-546.39,18314.3)"><text x="12894.2px" y="9549.83px" style="font-family:'Arial-BoldMT', 'Arial', sans-serif;font-weight:700;font-size:300px;fill:#756460;">Á</text></g><g transform="matrix(0.529061,-0.848584,0.848584,0.529061,-1777.56,15401.2)"><text x="12992.2px" y="9302.1px" style="font-family:'Arial-BoldMT', 'Arial', sans-serif;font-weight:700;font-size:300px;fill:#756460;">T</text></g><g transform="matrix(0.686823,-0.726825,0.726825,0.686823,-2511.01,12382.1)"><text x="13118.1px" y="9104.86px" style="font-family:'Arial-BoldMT', 'Arial', sans-serif;font-weight:700;font-size:300px;fill:#756460;">U</text></g><g transform="matrix(0.820897,-0.571076,0.571076,0.820897,-2709.1,9191.69)"><text x="13304.8px" y="8914.89px" style="font-family:'Arial-BoldMT', 'Arial', sans-serif;font-weight:700;font-size:300px;fill:#756460;">S</text></g><g transform="matrix(0.899772,-0.43636,0.43636,0.899772,-2476.74,6774.53)"><text x="13514px" y="8778.72px" style="font-family:'Arial-BoldMT', 'Arial', sans-serif;font-weight:700;font-size:300px;fill:#756460;">I</text></g><g transform="matrix(0.999962,0.00872075,-0.00872075,0.999962,75.8219,-121.633)"><text x="13990.5px" y="8633.44px" style="font-family:'Arial-BoldMT', 'Arial', sans-serif;font-weight:700;font-size:300px;fill:#756460;">B</text></g><g transform="matrix(0.976055,0.217525,-0.217525,0.976055,2220.56,-2893.2)"><text x="14256.9px" y="8639.48px" style="font-family:'Arial-BoldMT', 'Arial', sans-serif;font-weight:700;font-size:300px;fill:#756460;">A</text></g><g transform="matrix(0.902905,0.42984,-0.42984,0.902905,5149.01,-5392.83)"><text x="14516.8px" y="8700.94px" style="font-family:'Arial-BoldMT', 'Arial', sans-serif;font-weight:700;font-size:300px;fill:#756460;">R</text></g><g transform="matrix(0.795795,0.605567,-0.605567,0.795795,8352.6,-7132.14)"><text x="14756.7px" y="8818.65px" style="font-family:'Arial-BoldMT', 'Arial', sans-serif;font-weight:700;font-size:300px;fill:#756460;">Á</text></g><g transform="matrix(0.659567,0.751646,-0.751646,0.659567,11845.8,-8185.88)"><text x="14965px" y="8984.25px" style="font-family:'Arial-BoldMT', 'Arial', sans-serif;font-weight:700;font-size:300px;fill:#756460;">T</text></g><g transform="matrix(0.542398,0.840122,-0.840122,0.542398,14611.8,-8499.61)"><text x="15113.5px" y="9163.31px" style="font-family:'Arial-BoldMT', 'Arial', sans-serif;font-weight:700;font-size:300px;fill:#756460;">I</text></g><g transform="matrix(0.105485,0.994421,-0.994421,0.105485,23261.2,-6621.96)"><text x="15316.7px" y="9618.62px" style="font-family:'Arial-BoldMT', 'Arial', sans-serif;font-weight:700;font-size:300px;fill:#756460;">K</text></g><g transform="matrix(-0.105093,0.994462,-0.994462,-0.105093,26778.9,-4329.39)"><text x="15342.7px" y="9884.34px" style="font-family:'Arial-BoldMT', 'Arial', sans-serif;font-weight:700;font-size:300px;fill:#756460;">Ö</text></g><g transform="matrix(-0.329552,0.944137,-0.944137,-0.329552,29944.7,-932.253)"><text x="15308.6px" y="10166px" style="font-family:'Arial-BoldMT', 'Arial', sans-serif;font-weight:700;font-size:300px;fill:#756460;">R</text></g></g><g transform="matrix(1,5.43984e-19,-9.83069e-18,1,-12447.3,-8213.35)"><g transform="matrix(0.753364,0.657604,-0.657604,0.753364,10632.1,-5975.55)"><text x="13287.6px" y="11186.4px" style="font-family:'Arial-BoldMT', 'Arial', sans-serif;font-weight:700;font-size:300px;fill:#756460;">E</text></g><g transform="matrix(0.865853,0.500299,-0.500299,0.865853,7497.32,-5227.48)"><text x="13501.8px" y="11366.8px" style="font-family:'Arial-BoldMT', 'Arial', sans-serif;font-weight:700;font-size:300px;fill:#756460;">G</text></g><g transform="matrix(0.948015,0.318227,-0.318227,0.948015,4380.54,-3783.89)"><text x="13777px" y="11515.7px" style="font-family:'Arial-BoldMT', 'Arial', sans-serif;font-weight:700;font-size:300px;fill:#756460;">Y</text></g><g transform="matrix(0.991129,0.1329,-0.1329,0.991129,1666.01,-1762.92)"><text x="14044.5px" y="11598.8px" style="font-family:'Arial-BoldMT', 'Arial', sans-serif;font-weight:700;font-size:300px;fill:#756460;">E</text></g><g transform="matrix(0.998832,-0.0483226,0.0483226,0.998832,-545.257,705.441)"><text x="14322.7px" y="11629.8px" style="font-family:'Arial-BoldMT', 'Arial', sans-serif;font-weight:700;font-size:300px;fill:#756460;">S</text></g><g transform="matrix(0.970971,-0.239199,0.239199,0.970971,-2353.4,3828.56)"><text x="14602px" y="11610.2px" style="font-family:'Arial-BoldMT', 'Arial', sans-serif;font-weight:700;font-size:300px;fill:#756460;">Ü</text></g><g transform="matrix(0.906798,-0.421565,0.421565,0.906798,-3474.29,7348.74)"><text x="14887.8px" y="11531.7px" style="font-family:'Arial-BoldMT', 'Arial', sans-serif;font-weight:700;font-size:300px;fill:#756460;">L</text></g><g transform="matrix(0.817243,-0.576293,0.576293,0.817243,-3816.2,10799.6)"><text x="15124.5px" y="11416.7px" style="font-family:'Arial-BoldMT', 'Arial', sans-serif;font-weight:700;font-size:300px;fill:#756460;">E</text></g><g transform="matrix(0.702354,-0.711828,0.711828,0.702354,-3441.06,14270.8)"><text x="15349.3px" y="11250.1px" style="font-family:'Arial-BoldMT', 'Arial', sans-serif;font-weight:700;font-size:300px;fill:#756460;">T</text></g></g></svg>