<?xml version="1.0" encoding="UTF-8" standalone="no"?><!DOCTYPE svg PUBLIC "-//W3C//DTD SVG 1.1//EN" "http://www.w3.org/Graphics/SVG/1.1/DTD/svg11.dtd"><svg width="100%" height="100%" viewBox="0 0 3243 3263" version="1.1" xmlns="http://www.w3.org/2000/svg" xmlns:xlink="http://www.w3.org/1999/xlink" xml:space="preserve" xmlns:serif="http://www.serif.com/" style="fill-rule:evenodd;clip-rule:evenodd;stroke-linejoin:round;stroke-miterlimit:2;"><rect id="dbke-v4" x="0" y="0" width="3242.37" height="3262.8" style="fill:none;"/><g><path d="M1621.19,507.312l-0,1157.84l-1157.84,0.001c-0,-639.456 335.588,-1184.85 1157.84,-1157.84Z" style="fill:none;"/><clipPath id="_clip1"><path d="M1621.19,507.312l-0,1157.84l-1157.84,0.001c-0,-639.456 335.588,-1184.85 1157.84,-1157.84Z"/></clipPath><g clip-path="url(#_clip1)"><path d="M1685.96,1150.13c0.939,70.065 -7.227,132.994 -24.499,188.787c-17.272,55.793 -41.761,105.301 -73.468,148.524c-31.706,43.222 -69.629,80.146 -113.768,110.771c-44.138,30.624 -92.603,55.926 -145.394,75.905c-52.791,19.979 -109.029,34.874 -168.714,44.684c-59.685,9.81 -121.056,15.137 -184.115,15.983c-23.522,0.315 -46.551,-0.002 -69.089,-0.951c-22.538,-0.95 -45.584,-2.518 -69.14,-4.705l7.918,-977.689c54.817,-18.254 111.328,-31.4 169.535,-39.438c58.207,-8.039 116.087,-12.443 173.64,-13.215c71.567,-0.959 137.512,8.168 197.836,27.382c60.324,19.213 112.516,47.921 156.577,86.123c44.06,38.203 78.607,85.543 103.641,142.02c25.034,56.477 38.047,121.75 39.04,195.819Zm-506.609,295.11c29.967,-4.906 57.245,-14.407 81.834,-28.502c24.588,-14.095 45.755,-31.397 63.5,-51.908c17.745,-20.51 31.324,-43.718 40.738,-69.622c9.413,-25.905 13.926,-53.371 13.537,-82.398c-0.383,-28.526 -3.743,-55.136 -10.08,-79.828c-6.338,-24.693 -16.386,-46.082 -30.143,-64.168c-13.757,-18.086 -31.718,-32.361 -53.883,-42.826c-22.165,-10.465 -49.269,-15.983 -81.312,-16.554l-24.191,435.806Z" style="fill:#6ab07d;fill-rule:nonzero;"/></g><path d="M1676.77,507.312l-0,1157.84l1157.84,0.001c-0,-639.456 -234.907,-1209.54 -1157.84,-1157.84Z" style="fill:none;"/><clipPath id="_clip2"><path d="M1676.77,507.312l-0,1157.84l1157.84,0.001c-0,-639.456 -234.907,-1209.54 -1157.84,-1157.84Z"/></clipPath><g clip-path="url(#_clip2)"><path d="M2449.49,1548.59c-5.151,37.582 -17.167,68.918 -36.048,94.008c-18.881,25.09 -42.298,45.407 -70.25,60.95c-27.952,15.544 -59.275,27.05 -93.968,34.52c-34.694,7.469 -70.397,12.148 -107.11,14.036c-36.713,1.887 -73.24,1.494 -109.581,-1.18c-36.341,-2.674 -70.166,-6.157 -101.475,-10.448c-30.813,-4.223 -62.604,-9.618 -95.373,-16.185c-32.77,-6.567 -65.213,-14.589 -97.331,-24.065c-32.118,-9.476 -63.506,-20.582 -94.164,-33.318c-30.658,-12.736 -59.283,-27.384 -85.873,-43.945l118.405,-874.999c29.258,-6.6 60.115,-11.942 92.573,-16.028c32.457,-4.086 65.35,-6.728 98.677,-7.926c33.328,-1.199 66.345,-1.056 99.052,0.428c32.706,1.485 64.217,4.304 94.533,8.459c35.285,4.836 70.664,11.761 106.136,20.774c35.472,9.013 69.205,20.556 101.199,34.628c31.994,14.073 61.364,30.668 88.11,49.787c26.745,19.119 49.407,41.254 67.985,66.404c18.577,25.149 31.937,53.274 40.079,84.375c8.142,31.1 9.576,65.894 4.301,104.381c-3.475,25.356 -10.709,48.583 -21.701,69.68c-10.993,21.097 -25.154,39.453 -42.483,55.069c-17.33,15.615 -37.533,28.184 -60.609,37.707c-23.077,9.523 -48.437,15.389 -76.08,17.597c31.248,12.125 59.143,27.48 83.683,46.067c24.54,18.586 44.67,39.797 60.39,63.632c15.72,23.836 26.843,49.809 33.37,77.92c6.526,28.111 7.711,57.335 3.553,87.672Zm-325.636,-439.039c1.8,-13.131 0.354,-24.747 -4.337,-34.846c-4.692,-10.1 -10.983,-18.689 -18.873,-25.767c-7.891,-7.078 -16.743,-12.674 -26.559,-16.787c-9.816,-4.113 -18.699,-6.715 -26.651,-7.804c-9.939,-1.363 -19.817,-1.332 -29.631,0.09c-9.815,1.423 -44.356,7.298 -53.798,9.694l-0.226,146.201c11.431,1.567 25.719,2.603 42.864,3.107c17.145,0.505 33.964,-1.226 50.457,-5.193c16.492,-3.968 31.027,-11.201 43.605,-21.702c12.578,-10.5 20.295,-26.165 23.149,-46.993Zm-136.201,206.907c-14.413,-1.975 -28.514,-2.524 -42.305,-1.646l-24.205,154.446c7.268,2.38 14.428,4.63 21.479,6.749c7.051,2.12 14.055,3.657 21.013,4.61c10.436,1.431 22.006,1.978 34.71,1.644c12.704,-0.335 24.941,-2.81 36.712,-7.424c11.771,-4.614 21.974,-11.634 30.607,-21.061c8.634,-9.427 14.129,-22.743 16.488,-39.949c2.358,-17.206 0.679,-31.736 -5.038,-43.591c-5.717,-11.855 -13.375,-21.554 -22.973,-29.097c-9.599,-7.543 -20.471,-13.185 -32.616,-16.925c-12.145,-3.74 -23.436,-6.326 -33.872,-7.756Z" style="fill:#f7b10f;fill-rule:nonzero;"/></g><path d="M1621.19,2874.63l-0,-1157.84l-1157.84,-0c-57.295,932.201 518.381,1157.84 1157.84,1157.84Z" style="fill:none;"/><clipPath id="_clip3"><path d="M1621.19,2874.63l-0,-1157.84l-1157.84,-0c-57.295,932.201 518.381,1157.84 1157.84,1157.84Z"/></clipPath><g clip-path="url(#_clip3)"><path d="M1953.25,1561.58l-589.133,552.54l663.046,337.485l-519.381,115.644l-273.091,-249.882l26.299,295.624l-321.685,52.96l-106.402,-999.707l364.113,-30.758l13.128,335.178l149.929,-378.675l593.177,-30.409Z" style="fill:#ec7761;fill-rule:nonzero;"/></g><path d="M1676.77,2874.63l-0,-1157.84l1157.84,-0c-0,639.455 -518.381,1157.84 -1157.84,1157.84Z" style="fill:none;"/><clipPath id="_clip4"><path d="M1676.77,2874.63l-0,-1157.84l1157.84,-0c-0,639.455 -518.381,1157.84 -1157.84,1157.84Z"/></clipPath><g clip-path="url(#_clip4)"><path d="M2436.16,2090.71c-8.364,43.516 -19.873,86.427 -34.525,128.735c-90.644,-11.72 -181.414,-19.962 -272.309,-24.727c-90.895,-4.765 -181.766,-9.655 -272.613,-14.671c6.698,38.632 22.519,71.496 47.461,98.593c24.942,27.098 57.583,44.523 97.924,52.278c20.956,4.028 44.598,4.683 70.925,1.964c26.328,-2.719 52.885,-7.339 79.672,-13.86c26.787,-6.521 52.694,-14.119 77.721,-22.793c25.028,-8.674 46.672,-16.702 64.932,-24.084l-103.198,333.373c-23.317,11.078 -47.903,19.577 -73.76,25.499c-25.857,5.922 -52.246,9.666 -79.167,11.234c-26.921,1.568 -53.767,1.334 -80.539,-0.7c-26.772,-2.034 -52.732,-5.468 -77.879,-10.302c-51.866,-9.97 -97.982,-25.837 -138.346,-47.6c-40.363,-21.763 -75.634,-48.122 -105.81,-79.078c-30.176,-30.956 -55.189,-65.458 -75.038,-103.505c-19.85,-38.048 -34.669,-78.24 -44.458,-120.578c-9.789,-42.337 -14.954,-86.12 -15.496,-131.348c-0.541,-45.228 3.467,-90.1 12.024,-134.616c8.942,-46.517 22.337,-92.178 40.185,-136.983c17.848,-44.805 39.944,-86.978 66.287,-126.519c26.343,-39.541 56.801,-75.05 91.373,-106.526c34.571,-31.476 72.838,-57.445 114.799,-77.905c41.962,-20.461 87.615,-33.987 136.961,-40.58c49.346,-6.593 102.048,-4.502 158.105,6.274c46.627,8.963 88.017,23.273 124.168,42.929c36.151,19.657 67.197,43.259 93.139,70.808c25.942,27.548 47.162,58.468 63.659,92.759c16.497,34.291 28.511,70.703 36.044,109.236c7.533,38.532 11.013,78.36 10.442,119.484c-0.571,41.124 -4.798,82.194 -12.683,123.209Zm-309.311,-97.663c3.007,-7.924 6.355,-30.464 6.048,-45.823c-0.307,-15.36 -2.844,-29.722 -7.609,-43.086c-4.765,-13.364 -12.165,-25.03 -22.201,-34.998c-10.035,-9.969 -23.697,-16.614 -40.986,-19.938c-20.956,-4.028 -40.457,-2.201 -58.503,5.481c-18.047,7.683 -34.395,18.544 -49.046,32.584c-14.65,14.041 -27.47,29.859 -38.458,47.456c-10.988,17.597 -23.166,39.161 -26.599,49.347c87.126,-6.185 194.357,-6.013 237.354,8.977Z" style="fill:#61b5c1;fill-rule:nonzero;"/></g><circle cx="734.654" cy="1683.74" r="60.658" style="fill:#6ab07d;"/><circle cx="2508.54" cy="1685.09" r="60.658" style="fill:#61b5c1;"/><circle cx="1615.35" cy="656.25" r="60.658" style="fill:#f7b10f;"/><circle cx="1640.71" cy="2674.05" r="60.658" style="fill:#ec7761;"/></g></svg>