<?xml version="1.0" encoding="UTF-8" standalone="no"?><!DOCTYPE svg PUBLIC "-//W3C//DTD SVG 1.1//EN" "http://www.w3.org/Graphics/SVG/1.1/DTD/svg11.dtd"><svg width="100%" height="100%" viewBox="0 0 7234 3575" version="1.1" xmlns="http://www.w3.org/2000/svg" xmlns:xlink="http://www.w3.org/1999/xlink" xml:space="preserve" xmlns:serif="http://www.serif.com/" style="fill-rule:evenodd;clip-rule:evenodd;stroke-linejoin:round;stroke-miterlimit:2;"><rect id="dbke-v4-full_horiz" x="0" y="0" width="7233.87" height="3574.24" style="fill:none;"/><g><path d="M1905.34,610.996l0,1157.84l-1157.84,0c0,-639.455 335.588,-1184.85 1157.84,-1157.84Z" style="fill:none;"/><clipPath id="_clip1"><path d="M1905.34,610.996l0,1157.84l-1157.84,0c0,-639.455 335.588,-1184.85 1157.84,-1157.84Z"/></clipPath><g clip-path="url(#_clip1)"><path d="M1970.12,1253.81c0.939,70.065 -7.228,132.994 -24.5,188.787c-17.272,55.793 -41.761,105.301 -73.468,148.523c-31.706,43.223 -69.629,80.146 -113.767,110.771c-44.139,30.625 -92.604,55.927 -145.395,75.906c-52.791,19.979 -109.029,34.874 -168.714,44.684c-59.684,9.81 -121.056,15.137 -184.115,15.983c-23.521,0.315 -46.551,-0.002 -69.089,-0.951c-22.538,-0.95 -45.584,-2.518 -69.139,-4.705l7.918,-977.689c54.816,-18.254 111.327,-31.4 169.534,-39.438c58.207,-8.039 116.087,-12.444 173.641,-13.215c71.566,-0.959 137.511,8.168 197.835,27.381c60.324,19.214 112.517,47.922 156.577,86.124c44.06,38.203 78.607,85.542 103.641,142.02c25.034,56.477 38.048,121.75 39.041,195.819Zm-506.61,295.11c29.967,-4.907 57.245,-14.407 81.834,-28.502c24.588,-14.095 45.755,-31.398 63.5,-51.908c17.745,-20.51 31.324,-43.718 40.738,-69.623c9.414,-25.904 13.926,-53.37 13.537,-82.397c-0.383,-28.527 -3.743,-55.136 -10.08,-79.828c-6.338,-24.693 -16.385,-46.082 -30.143,-64.168c-13.757,-18.086 -31.718,-32.361 -53.883,-42.826c-22.165,-10.465 -49.269,-15.983 -81.312,-16.555l-24.191,435.807Z" style="fill:#6ab07d;fill-rule:nonzero;"/></g><path d="M1960.92,610.996l0,1157.84l1157.84,0c0,-639.455 -234.907,-1209.54 -1157.84,-1157.84Z" style="fill:none;"/><clipPath id="_clip2"><path d="M1960.92,610.996l0,1157.84l1157.84,0c0,-639.455 -234.907,-1209.54 -1157.84,-1157.84Z"/></clipPath><g clip-path="url(#_clip2)"><path d="M2733.64,1652.27c-5.151,37.582 -17.167,68.917 -36.048,94.008c-18.881,25.09 -42.298,45.406 -70.25,60.95c-27.952,15.543 -59.275,27.05 -93.968,34.519c-34.694,7.47 -70.397,12.149 -107.11,14.036c-36.713,1.888 -73.24,1.495 -109.581,-1.179c-36.341,-2.675 -70.166,-6.157 -101.475,-10.448c-30.813,-4.223 -62.604,-9.619 -95.373,-16.186c-32.77,-6.567 -65.213,-14.588 -97.331,-24.064c-32.118,-9.477 -63.506,-20.583 -94.164,-33.319c-30.658,-12.735 -59.282,-27.384 -85.872,-43.944l118.404,-874.999c29.258,-6.6 60.115,-11.943 92.573,-16.028c32.457,-4.086 65.35,-6.728 98.677,-7.926c33.328,-1.199 66.345,-1.056 99.052,0.428c32.707,1.484 64.218,4.304 94.533,8.459c35.285,4.836 70.664,11.761 106.136,20.774c35.472,9.013 69.205,20.556 101.199,34.628c31.995,14.072 61.364,30.668 88.11,49.787c26.746,19.119 49.407,41.254 67.985,66.403c18.577,25.15 31.937,53.275 40.079,84.375c8.142,31.101 9.576,65.894 4.301,104.382c-3.475,25.356 -10.709,48.583 -21.701,69.68c-10.993,21.097 -25.154,39.453 -42.483,55.069c-17.33,15.615 -37.533,28.184 -60.609,37.707c-23.077,9.523 -48.437,15.389 -76.08,17.597c31.248,12.125 59.143,27.48 83.683,46.066c24.54,18.587 44.67,39.797 60.39,63.633c15.72,23.835 26.843,49.809 33.37,77.92c6.526,28.111 7.711,57.335 3.553,87.672Zm-325.636,-439.04c1.8,-13.131 0.354,-24.746 -4.337,-34.845c-4.692,-10.1 -10.983,-18.689 -18.873,-25.767c-7.89,-7.079 -16.743,-12.674 -26.559,-16.787c-9.816,-4.113 -18.699,-6.715 -26.651,-7.805c-9.939,-1.362 -19.816,-1.332 -29.631,0.091c-9.815,1.423 -44.355,7.297 -53.797,9.694l-0.227,146.201c11.431,1.567 25.719,2.602 42.864,3.107c17.146,0.505 33.964,-1.227 50.457,-5.194c16.492,-3.967 31.028,-11.201 43.606,-21.701c12.578,-10.501 20.294,-26.165 23.148,-46.994Zm-136.201,206.908c-14.413,-1.976 -28.514,-2.524 -42.305,-1.647l-24.205,154.447c7.268,2.38 14.428,4.63 21.479,6.749c7.051,2.12 14.055,3.656 21.013,4.61c10.436,1.43 22.006,1.978 34.71,1.643c12.704,-0.334 24.941,-2.809 36.712,-7.423c11.772,-4.614 21.974,-11.635 30.607,-21.061c8.634,-9.427 14.13,-22.743 16.488,-39.949c2.358,-17.206 0.679,-31.737 -5.038,-43.591c-5.717,-11.855 -13.375,-21.554 -22.973,-29.097c-9.599,-7.543 -20.471,-13.185 -32.616,-16.925c-12.145,-3.741 -23.436,-6.326 -33.872,-7.756Z" style="fill:#f7b10f;fill-rule:nonzero;"/></g><path d="M1905.34,2978.32l0,-1157.84l-1157.84,-0.001c-57.294,932.201 518.381,1157.84 1157.84,1157.84Z" style="fill:none;"/><clipPath id="_clip3"><path d="M1905.34,2978.32l0,-1157.84l-1157.84,-0.001c-57.294,932.201 518.381,1157.84 1157.84,1157.84Z"/></clipPath><g clip-path="url(#_clip3)"><path d="M2239.4,1665.27l-589.133,552.541l663.046,337.484l-519.381,115.645l-273.091,-249.882l26.3,295.624l-321.686,52.96l-106.402,-999.708l364.113,-30.757l13.128,335.178l149.929,-378.676l593.177,-30.409Z" style="fill:#ec7761;fill-rule:nonzero;"/></g><path d="M1960.92,2978.32l0,-1157.84l1157.84,-0.001c0,639.456 -518.381,1157.84 -1157.84,1157.84Z" style="fill:none;"/><clipPath id="_clip4"><path d="M1960.92,2978.32l0,-1157.84l1157.84,-0.001c0,639.456 -518.381,1157.84 -1157.84,1157.84Z"/></clipPath><g clip-path="url(#_clip4)"><path d="M2720.31,2194.39c-8.365,43.515 -19.874,86.427 -34.525,128.734c-90.645,-11.719 -181.415,-19.961 -272.31,-24.726c-90.895,-4.765 -181.766,-9.656 -272.613,-14.671c6.699,38.632 22.519,71.496 47.461,98.593c24.942,27.097 57.584,44.523 97.924,52.278c20.956,4.028 44.598,4.683 70.926,1.963c26.327,-2.719 52.884,-7.339 79.671,-13.859c26.787,-6.521 52.694,-14.119 77.722,-22.793c25.027,-8.674 46.671,-16.702 64.931,-24.084l-103.198,333.373c-23.317,11.077 -47.903,19.577 -73.76,25.499c-25.856,5.921 -52.245,9.666 -79.166,11.234c-26.922,1.567 -53.768,1.334 -80.54,-0.7c-26.772,-2.035 -52.732,-5.469 -77.879,-10.303c-51.866,-9.97 -97.981,-25.836 -138.345,-47.599c-40.364,-21.763 -75.634,-48.123 -105.811,-79.079c-30.176,-30.955 -55.189,-65.457 -75.038,-103.505c-19.849,-38.047 -34.669,-78.239 -44.458,-120.577c-9.789,-42.338 -14.954,-86.12 -15.496,-131.348c-0.541,-45.228 3.467,-90.1 12.024,-134.616c8.942,-46.517 22.337,-92.178 40.185,-136.983c17.848,-44.805 39.944,-86.978 66.287,-126.519c26.344,-39.541 56.801,-75.05 91.373,-106.526c34.572,-31.477 72.838,-57.445 114.799,-77.905c41.962,-20.461 87.615,-33.988 136.961,-40.581c49.346,-6.592 102.048,-4.501 158.105,6.275c46.628,8.963 88.017,23.272 124.168,42.929c36.151,19.656 67.198,43.259 93.14,70.808c25.941,27.548 47.161,58.468 63.658,92.759c16.497,34.291 28.512,70.703 36.044,109.235c7.533,38.533 11.014,78.361 10.443,119.485c-0.572,41.124 -4.799,82.194 -12.683,123.209Zm-309.312,-97.664c3.007,-7.923 6.355,-30.463 6.048,-45.823c-0.307,-15.359 -2.843,-29.721 -7.608,-43.085c-4.766,-13.364 -12.166,-25.03 -22.201,-34.998c-10.036,-9.969 -23.698,-16.615 -40.987,-19.938c-20.956,-4.028 -40.457,-2.201 -58.503,5.481c-18.046,7.682 -34.395,18.544 -49.046,32.584c-14.65,14.04 -27.47,29.859 -38.458,47.456c-10.988,17.597 -23.165,39.16 -26.598,49.347c87.125,-6.185 194.356,-6.013 237.353,8.976Z" style="fill:#61b5c1;fill-rule:nonzero;"/></g><circle cx="1018.81" cy="1787.42" r="60.658" style="fill:#6ab07d;"/><circle cx="2792.69" cy="1788.78" r="60.658" style="fill:#61b5c1;"/><circle cx="1899.5" cy="759.935" r="60.658" style="fill:#f7b10f;"/><circle cx="1924.86" cy="2777.73" r="60.658" style="fill:#ec7761;"/><g transform="matrix(0.311261,0,0,0.311261,1185.03,-1182.23)"><text x="6666.42px" y="8694.95px" style="font-family:'Arial-BoldMT', 'Arial', sans-serif;font-weight:700;font-size:1244.15px;fill:#756460;">D<tspan x="7795.27px 8993.37px 10122.2px 11251.1px 12241.4px 13370.3px 14430.5px " y="8694.95px 8694.95px 8694.95px 8694.95px 8694.95px 8694.95px 8694.95px ">ONÁTUSI</tspan></text><text x="7074.29px" y="10032.4px" style="font-family:'Arial-BoldMT', 'Arial', sans-serif;font-weight:700;font-size:1244.15px;fill:#756460;"><tspan x="7074.29px 8203.14px 9331.99px 10460.8px 11589.7px 12580px 13134.2px 13688.3px 14817.2px 16015.3px " y="10032.4px 10032.4px 10032.4px 10032.4px 10032.4px 10032.4px 10032.4px 10032.4px 10032.4px 10032.4px ">BARÁTI KÖR</tspan></text><g transform="matrix(1244.15,0,0,1244.15,16066.6,11369.9)"></g><text x="6666.42px" y="11369.9px" style="font-family:'Arial-BoldMT', 'Arial', sans-serif;font-weight:700;font-size:1244.15px;fill:#756460;">E<tspan x="7726.62px 8924.73px 9984.93px 11045.1px 12105.3px 13234.2px 14224.5px 15284.7px " y="11369.9px 11369.9px 11369.9px 11369.9px 11369.9px 11369.9px 11369.9px 11369.9px ">GYESÜLET</tspan></text></g></g></svg>